<svg xmlns="http://www.w3.org/2000/svg" width="34" height="30" viewBox="0 0 34 30">
    <path fill="#207BFF" fill-rule="evenodd" d="M31.167 15.01v-2.66c.675-.23 1.248-.484 1.698-.763v2.3c0 .311-.597.718-1.698 1.123zm-.009 7.256c-.06.376-.932.874-2.478 1.343-2.005.608-5.142 1.164-9.118 1.338-.205.008-.407.016-.614.021l-.512.018c-.471.007-.947.015-1.436.015a63.512 63.512 0 0 1-1.945-.033l-.617-.024c-3.976-.171-7.114-.727-9.118-1.335-1.498-.452-2.366-.936-2.473-1.308a16.541 16.541 0 0 0 1.049.318c.06.017.121.035.182.049.092.025.183.05.277.07 2.063.519 4.698.888 7.543 1.053h.002c.88.049 1.777.081 2.685.093.24.005.481.005.716.005a58.857 58.857 0 0 0 3.395-.098h.011a57.04 57.04 0 0 0 2.817-.241h.01c.012 0 .023-.006.033-.006a41.56 41.56 0 0 0 3.506-.543c1.676-.336 3.123-.773 4.119-1.312a7.932 7.932 0 0 0 .337-.202c.055-.034.116-.066.165-.102 1.122.39 1.428.74 1.464.881zm-1.69 4.968v-2.659c.673-.23 1.245-.486 1.7-.765v2.299c0 .314-.599.72-1.7 1.125zM2.834 26.111v-2.3c.453.278 1.026.533 1.698.764v2.659c-1.1-.404-1.698-.811-1.698-1.123zM1.135 20v-2.301c.45.28 1.023.535 1.698.765v2.648l-.324-.122-.005.005c-.892-.36-1.37-.716-1.37-.995zm2.744-5.09c.008.009.02.016.031.025.774.768 2.38 1.372 4.38 1.823a18.99 18.99 0 0 0 .59.125c1.833.382 4.028.658 6.416.797h.005c.77.044 1.552.073 2.354.087a42.283 42.283 0 0 0 2.244-.003 57.11 57.11 0 0 0 2.192-.084h.008c.006 0 .009-.003.015-.003 2.396-.138 4.642-.417 6.543-.819-.412.209-.976.43-1.676.64-2.117.644-5.499 1.227-9.793 1.362-.128.003-.255.009-.384.011l-.42.01c-.358.004-.715.009-1.083.009-.493 0-.969-.005-1.436-.016l-.514-.017c-.208-.005-.41-.013-.612-.022-3.977-.172-7.115-.73-9.12-1.337-1.558-.471-2.429-.973-2.48-1.351.064-.21.637-.733 2.74-1.236zM1.135 7.222v-2.3c.45.278 1.023.534 1.698.763v2.66c-1.102-.404-1.698-.81-1.698-1.123zM15.3 1.112c9.344 0 14.07 1.44 14.159 2.268-.069.376-.941.873-2.48 1.34-2.005.608-5.143 1.164-9.117 1.335l-.614.024c-.172.006-.34.012-.512.013-.47.012-.946.02-1.436.02a58.5 58.5 0 0 1-1.436-.02c-.174-.001-.343-.007-.514-.013l-.612-.024c-3.977-.171-7.115-.727-9.12-1.335-1.539-.467-2.41-.964-2.477-1.34.088-.827 4.814-2.268 14.16-2.268zm17.56 8.925c-.054.377-.925.879-2.48 1.35-2.005.607-5.143 1.162-9.12 1.336l-.612.023c-.17.007-.34.01-.514.015a63.663 63.663 0 0 1-3.384-.016c-.208-.006-.41-.014-.615-.022-3.973-.174-7.11-.73-9.117-1.337-1.544-.467-2.413-.966-2.479-1.34.003-.012.003-.02.01-.033.04.008.081.016.12.026.222.052.45.101.68.15 1.127.236 2.374.432 3.703.58.006 0 .008.004.014.004h.003c.904.1 1.845.179 2.809.236.007 0 .013.005.021.005.003 0 .007-.004.011-.004.695.039 1.398.069 2.109.085a52.993 52.993 0 0 0 2.191.008c4.118-.062 7.933-.543 10.587-1.285l.36-.107c.071-.021.147-.04.216-.061.204-.066.4-.134.592-.202.033-.01.062-.025.096-.034a12.507 12.507 0 0 0 .59-.24c.157-.07.31-.14.45-.214.062-.033.116-.067.178-.1l.199-.117c.036-.021.078-.043.11-.065 2.537.537 3.208 1.129 3.272 1.36zm-3.074 5.407c-.283.076-.582.149-.886.22-.14.033-.286.062-.432.094-.043.009-.092.02-.136.027v-2.71c.604-.116 1.17-.244 1.701-.386v2.687a6.983 6.983 0 0 0-.247.068zm-6.476 1.041c-.214.017-.431.027-.644.044v-2.768a53.435 53.435 0 0 0 1.698-.135v2.757a51.68 51.68 0 0 1-1.054.102zm3.835-.474c-.248.04-.498.084-.755.122l-.451.064c-.144.02-.293.036-.44.056v-2.746a41.642 41.642 0 0 0 1.702-.233v2.725c-.02.004-.036.009-.056.012zm-7.322-2.133c.571-.01 1.142-.027 1.708-.054v2.773c-.744.035-1.5.055-2.266.062v-2.772c.157-.004.313-.004.468-.006l.09-.003zm-13.59-1.527v2.64c-.891-.337-1.468-.681-1.652-.988l-.04-.063c-.002-.018-.007-.035-.01-.053v-2.3c.454.279 1.026.534 1.702.764zm2.833.724v2.708a26.009 26.009 0 0 1-1.702-.418v-2.676c.531.142 1.099.27 1.702.386zm1.782 3.033a30.131 30.131 0 0 1-.65-.111v-2.723c.55.086 1.118.165 1.701.233v2.747a35.15 35.15 0 0 1-1.013-.14c-.013-.003-.024-.006-.038-.006zm3.744.416a44.707 44.707 0 0 1-1.292-.111l-.221-.022c-.017 0-.032-.003-.049-.006v-2.759c.56.054 1.127.098 1.703.135v2.77l-.141-.007zM8.5 6.839v2.745c-.113-.014-.23-.024-.34-.04a38.837 38.837 0 0 1-1.174-.177c-.064-.01-.124-.022-.185-.033V6.606c.548.086 1.115.165 1.7.233zm1.135 2.877V6.96c.555.053 1.123.098 1.698.136V9.86a52.347 52.347 0 0 1-1.698-.144zM20.969 6.96v2.756c-.55.055-1.117.107-1.703.148V7.096a60.23 60.23 0 0 0 1.703-.136zm3.963 2.155V6.407a27.215 27.215 0 0 0 1.703-.382v2.677c-.51.144-1.082.282-1.703.413zm-2.833.469V6.839a43.282 43.282 0 0 0 1.703-.233v2.723c-.54.092-1.105.179-1.703.255zm7.24-2.094l-.018-.004-.207.158c-.3.228-.759.458-1.348.684V5.684c.675-.23 1.248-.485 1.703-.763V7.22c0 .084-.048.175-.13.27zm-12.915-.28c.57-.01 1.14-.026 1.711-.05v2.769l-.289.015c-.004 0-.013 0-.021.003-.383.018-.77.027-1.163.036-.06.003-.121.003-.182.005-.203.003-.41.006-.615.006V7.219c.158 0 .313-.003.468-.005l.091-.004zm-2.158.004c.155.002.31.005.468.005v2.775a61.807 61.807 0 0 1-2.266-.063V7.16c.567.025 1.137.043 1.707.055h.091zM3.967 8.708V6.025c.53.139 1.1.266 1.7.382v2.714a20.394 20.394 0 0 1-1.087-.25c-.214-.052-.42-.11-.613-.163zm13.219 7.94a55.62 55.62 0 0 1-1.254-.046c-.022-.003-.045-.003-.067-.003v-2.775c.57.027 1.14.043 1.71.054.03 0 .06 0 .09.003.157.002.312.002.467.006v2.775a234.52 234.52 0 0 1-.822-.01c-.042-.004-.083-.004-.124-.004zm7.746 2.536a25.463 25.463 0 0 0 1.703-.382v2.683c-.507.144-1.074.283-1.703.413v-2.714zM22.1 22.367V19.62a38.778 38.778 0 0 0 1.703-.236v2.729a37.36 37.36 0 0 1-1.703.255zm-2.455.25c-.123.007-.25.019-.378.026v-2.77c.576-.038 1.143-.08 1.703-.135v2.76c-.353.034-.709.07-1.078.1-.082.005-.165.014-.247.018zM8.5 19.618v2.748a41.7 41.7 0 0 1-1.699-.255v-2.73c.548.09 1.115.168 1.7.237zm1.427 2.908a8.77 8.77 0 0 1-.171-.017c-.042-.005-.083-.007-.121-.012v-2.76c.555.054 1.123.097 1.698.135v2.77a60.161 60.161 0 0 1-1.406-.116zm1.406 3.324c.56.051 1.127.096 1.698.135v2.77c-.586-.04-1.152-.09-1.698-.147V25.85zM8.5 25.495c.547.089 1.115.168 1.698.235v2.749a43.547 43.547 0 0 1-1.698-.255v-2.729zm-1.135-.198v2.713c-.625-.13-1.195-.27-1.698-.413v-2.682c.527.137 1.098.268 1.698.382zm19.27 0c.6-.117 1.17-.245 1.698-.382v2.682a24.48 24.48 0 0 1-1.698.413v-2.713zm-2.833.433a47.39 47.39 0 0 0 1.698-.235v2.73c-.534.09-1.1.176-1.698.254V25.73zm-1.135.12v2.759c-.545.057-1.112.107-1.698.146v-2.772a57.86 57.86 0 0 0 1.698-.132zm-4.544.252c.573-.011 1.143-.03 1.71-.054v2.773c-.726.035-1.482.06-2.266.065v-2.777c.156 0 .31-.004.468-.007h.088zm-2.158 0l.467.01v2.774a53.176 53.176 0 0 1-2.265-.062v-2.776c.567.027 1.137.043 1.71.054h.088zm-11.945-4.6l-.053-.017v-2.683c.53.141 1.1.268 1.7.385v2.71c-.521-.108-1-.222-1.437-.339l-.21-.057zm10.238 1.266c-.26-.005-.52-.01-.775-.018l-.097-.003c-.306-.011-.614-.022-.918-.039v-2.772c.567.027 1.137.044 1.707.054h.091l.468.009v2.775c-.11 0-.222 0-.33-.003-.05 0-.1-.003-.146-.003zm2.473-.009c-.082.004-.165.004-.249.006-.202.006-.41.006-.614.01v-2.776l.468-.01.088-.002c.57-.007 1.143-.026 1.711-.05v2.771c-.122.01-.244.014-.366.02-.343.013-.686.024-1.038.031zm12.674-2.578l-.192.165c-.299.257-.794.515-1.447.765v-2.648c.675-.23 1.248-.486 1.703-.765v2.3a.352.352 0 0 1-.064.183zm4.59-10.182c-.059-.95-1.21-1.692-3.518-2.26.078-.166.122-.339.122-.518V3.334h-.008C30.386.094 16.853 0 15.301 0 13.745 0 .213.095.008 3.334H0V7.22C.002 8.277 1.391 9.104 3.458 9.72a1.195 1.195 0 0 0-.05.279H3.4v3.882c-2.227.565-3.34 1.296-3.395 2.23H0V20c.002.735.677 1.357 1.785 1.878a1.24 1.24 0 0 0-.079.344h-.008v3.89c.006 1.847 4.25 2.996 8.966 3.53.033.008.066.022.102.022.01 0 .02-.005.03-.009.91.101 1.834.18 2.748.236.019.003.036.012.055.012.011 0 .02-.007.03-.007 1.16.068 2.303.103 3.371.103s2.21-.035 3.371-.103c.01 0 .018.007.03.007.018 0 .036-.012.055-.012a57.62 57.62 0 0 0 2.748-.236c.01 0 .019.006.03.006.036 0 .07-.014.102-.019 4.716-.538 8.96-1.685 8.966-3.532v-3.888h-.012c-.038-.68-.63-1.25-1.801-1.725.072-.16.11-.326.11-.5v-3.632c2.035-.612 3.398-1.432 3.401-2.48V10h-.005z"/>
</svg>
