<svg xmlns="http://www.w3.org/2000/svg" width="36" height="36" viewBox="0 0 36 36">
    <path fill="#B1C8EA" fill-rule="evenodd" d="M9 24.6a.6.6 0 1 0 0 1.2h1.2a1.8 1.8 0 1 1 0 3.6v.6H9v-.6a1.8 1.8 0 0 1-1.8-1.8h1.2c0 .332.268.6.6.6h1.2a.6.6 0 0 0 0-1.2H9a1.8 1.8 0 1 1 0-3.6v-.6h1.2v.6a1.8 1.8 0 0 1 1.8 1.8h-1.2a.6.6 0 0 0-.6-.6H9zm.6 10.2a8.408 8.408 0 0 0 8.4-8.4 8.4 8.4 0 1 0-16.8 0 8.4 8.4 0 0 0 8.4 8.4zm0-18c5.3.007 9.593 4.3 9.6 9.6 0 5.301-4.298 9.6-9.6 9.6S0 31.701 0 26.4a9.6 9.6 0 0 1 9.6-9.6zm0 16.2A6.6 6.6 0 1 0 3 26.4 6.6 6.6 0 0 0 9.6 33zm0-14.4a7.8 7.8 0 1 1-7.8 7.8 7.8 7.8 0 0 1 7.8-7.8zm16.8-.6a8.408 8.408 0 0 0 8.4-8.4 8.4 8.4 0 1 0-8.4 8.4zm0-18c5.3.006 9.594 4.3 9.6 9.6A9.6 9.6 0 1 1 26.4 0zm.6 11.4a.6.6 0 1 0 0-1.2h-1.8v1.2H27zm-1.8-3.6V9H27a.6.6 0 1 0 0-1.2h-1.8zm2.4-1.09a1.785 1.785 0 0 1 .732 2.89 1.785 1.785 0 0 1-.731 2.89v.71h-1.202v-.6h-.6v.6H24.6v-.6a.6.6 0 0 1-.6-.6V7.2c0-.331.269-.6.6-.6V6h1.2v.6h.6V6h1.2v.71zm-1.2 9.49A6.607 6.607 0 0 0 33 9.6a6.6 6.6 0 1 0-6.6 6.6zm0-14.4A7.8 7.8 0 1 1 18.6 9.6c0-4.308 3.49-7.8 7.799-7.8zm3.93 19.264a.602.602 0 0 1 .807.264l1.613 3.22-1.073.54-.923-1.84a13.863 13.863 0 0 1-11.5 8.495l-.108-1.194a12.661 12.661 0 0 0 10.522-7.808l-2.015 1.009-.54-1.074 3.218-1.612zM4.8 15a.6.6 0 0 1-.58-.446l-.918-3.48 1.161-.306.624 2.368a13.874 13.874 0 0 1 11.66-8.88l.107 1.195a12.658 12.658 0 0 0-10.576 7.94l1.849-.489.306 1.161-3.48.917A.598.598 0 0 1 4.8 15zM30 10.2V9h1.2v1.2H30zm-8.4 0V9h1.2v1.2h-1.2zM13.2 27v-1.2h1.2V27h-1.2zm-8.4 0v-1.2H6V27H4.8z"/>
</svg>
