<svg xmlns="http://www.w3.org/2000/svg" width="31" height="36" viewBox="0 0 31 36">
    <path fill="#B1C8EA" fill-rule="evenodd" d="M18.945 26.724l10.414-14.209H1.395l1.313 1.969h16.9a.7.7 0 0 1 .697.703.7.7 0 0 1-.697.703H3.646l7.956 10.523h2.845c.384 0 .697.316.697.703a.7.7 0 0 1-.697.703h-2.52v6.404l6.9-2.204v-4.903c0-.139.04-.275.118-.392zM7.44 9.421c0 .932.751 1.689 1.673 1.689.923 0 1.673-.757 1.673-1.689 0-.93-.75-1.687-1.673-1.687-.922 0-1.673.757-1.673 1.687zm12.167-.21c-1.18 0-2.178.804-2.483 1.899h4.967a2.589 2.589 0 0 0-2.484-1.899zm10.981 2.643c.244.46.216 1.014-.073 1.446L20.22 27.33v5.148c0 .28-.163.534-.419.645l-8.292 2.817a.691.691 0 0 1-.66-.057.704.704 0 0 1-.316-.587V27.33L.238 13.301a1.413 1.413 0 0 1-.074-1.447c.243-.46.714-.744 1.23-.744h5.152a3.097 3.097 0 0 1-.5-1.689c0-1.705 1.376-3.093 3.068-3.093 1.692 0 3.068 1.388 3.068 3.093 0 .623-.184 1.203-.498 1.689h4.012c.332-1.876 1.959-3.306 3.912-3.306 1.953 0 3.58 1.43 3.912 3.306h5.839c.517 0 .988.285 1.23.744zM17.757 1.406c-.923 0-1.673.757-1.673 1.687 0 .932.75 1.688 1.673 1.688.921 0 1.673-.756 1.673-1.688 0-.93-.752-1.687-1.673-1.687zm0 4.781c-1.692 0-3.068-1.388-3.068-3.094C14.689 1.388 16.065 0 17.757 0c1.69 0 3.068 1.388 3.068 3.093 0 1.706-1.377 3.094-3.068 3.094zm7.45 2.614a.7.7 0 0 1-.696-.703V4.102a.7.7 0 0 1 .697-.704.7.7 0 0 1 .697.704v3.996a.7.7 0 0 1-.697.703zm0-6.305a.696.696 0 0 1-.492-.206.709.709 0 0 1 0-.994.696.696 0 0 1 .985 0 .71.71 0 0 1 0 .994.696.696 0 0 1-.492.206zm-13.722 2.69a.7.7 0 0 1-.697-.703V1.6a.7.7 0 0 1 .697-.703.7.7 0 0 1 .697.703v2.883a.7.7 0 0 1-.697.703zm-8.555.802a.7.7 0 0 1-.697-.703V.703A.7.7 0 0 1 2.93 0a.7.7 0 0 1 .697.703v4.582a.7.7 0 0 1-.697.703zm.493 2.431a.698.698 0 0 1-.492.206.698.698 0 0 1-.698-.703.698.698 0 0 1 .698-.703.698.698 0 0 1 .697.703.709.709 0 0 1-.205.497zm18.792 6.271a.698.698 0 0 1 .987 0c.128.13.203.313.203.497a.716.716 0 0 1-.203.498.708.708 0 0 1-.495.205.702.702 0 0 1-.492-1.2z"/>
</svg>
