<svg xmlns="http://www.w3.org/2000/svg" width="110" height="31" viewBox="0 0 110 31">
    <g fill="#182873" fill-rule="evenodd">
        <path d="M10.565 19.265c1.546 0 2.665-1.155 2.665-2.74 0-1.551-1.12-2.706-2.665-2.706H5.334v5.446h5.23zM5.334 4.675V9.76h4.54c1.415 0 2.467-1.09 2.467-2.542 0-1.452-1.02-2.541-2.467-2.541h-4.54zm12.403 12.148c0 1.947-.69 3.564-2.073 4.818-1.381 1.255-3.092 1.882-5.1 1.882H.795V.418h9.08c1.974 0 3.619.627 4.968 1.848 1.349 1.222 2.04 2.773 2.04 4.655 0 1.914-.724 3.465-2.172 4.62 2.007 1.156 3.027 2.938 3.027 5.282zM24.04 23.62h-4.113l-.085-16.6h4.244v16.503zM19.842 4.957V1.45h1.776a2.472 2.472 0 0 1 2.468 2.476v1.03h-4.244zM46.424 13.522c2.402.495 5.527 1.65 5.494 5.182 0 1.683-.625 3.004-1.908 3.928-1.25.89-2.83 1.353-4.705 1.353-3.388 0-5.691-1.32-6.908-3.928l1.742-.983c.931-.526 2.06-.353 2.88.335.563.474 1.321.714 2.286.714 1.514 0 2.27-.462 2.27-1.419 0-.891-1.316-1.386-2.993-1.816-2.435-.627-5.495-1.65-5.495-5.083 0-1.617.592-2.904 1.777-3.828 1.217-.958 2.698-1.42 4.474-1.42 2.665 0 4.968 1.255 6.25 3.5l-3.618 1.98c-.526-1.123-1.415-1.684-2.632-1.684-1.086 0-1.908.528-1.908 1.353 0 .892 1.316 1.387 2.994 1.816M65.045 11.805c-.856-.858-1.942-1.287-3.29-1.287-1.35 0-2.435.43-3.323 1.287-.855.826-1.283 1.915-1.283 3.202 0 2.64 1.94 4.522 4.606 4.522 2.664 0 4.606-1.881 4.606-4.522 0-1.287-.428-2.376-1.316-3.202zM66.36 7.02h4.145V22.73c0 2.541-.856 4.489-2.533 5.842-1.678 1.353-3.685 2.013-6.054 2.013-3.553 0-6.35-1.386-7.797-4.026l1.358-.78a3.286 3.286 0 0 1 3.536.177c.792.558 1.806.834 3.035.834 2.665 0 4.31-1.453 4.31-4.06v-1.783c-1.25 1.684-2.994 2.509-5.264 2.509-2.336 0-4.277-.825-5.856-2.443-1.547-1.65-2.336-3.663-2.336-6.007 0-2.343.79-4.324 2.368-5.974 1.58-1.65 3.52-2.476 5.824-2.476 2.27 0 4.013.825 5.264 2.509V7.02zM80.803 19.925c1.315 0 2.401-.429 3.257-1.287.888-.891 1.316-2.013 1.316-3.367 0-1.353-.428-2.475-1.316-3.334-.856-.89-1.942-1.32-3.257-1.32-1.316 0-2.402.43-3.258 1.32-.855.859-1.282 1.98-1.282 3.334s.427 2.476 1.282 3.367c.856.858 1.942 1.287 3.258 1.287zM85.376 7.02h4.244v16.71h-4.244v-2.154c-1.283 1.617-3.06 2.41-5.363 2.41-2.204 0-4.08-.826-5.659-2.51-1.546-1.683-2.335-3.762-2.335-6.205 0-2.442.789-4.489 2.335-6.172 1.58-1.684 3.455-2.542 5.659-2.542 2.303 0 4.08.793 5.363 2.41V7.02zM101.183 19.925c1.316 0 2.402-.429 3.257-1.287.888-.891 1.316-2.013 1.316-3.367 0-1.353-.428-2.475-1.316-3.334-.855-.89-1.941-1.32-3.257-1.32s-2.402.43-3.257 1.32c-.856.859-1.283 1.98-1.283 3.334s.427 2.476 1.283 3.367c.855.858 1.94 1.287 3.257 1.287M107.63 9.1c1.58 1.683 2.369 3.73 2.369 6.172 0 2.443-.79 4.522-2.37 6.205-1.545 1.684-3.453 2.51-5.658 2.51-2.303 0-4.079-.793-5.33-2.41v8.548h-1.78a2.467 2.467 0 0 1-2.463-2.47V7.02h4.244v1.947c1.25-1.617 3.026-2.41 5.33-2.41 2.204 0 4.112.858 5.658 2.542M33.001 1.45h-1.779a2.469 2.469 0 0 0-2.465 2.473v3.096h-2.862v4.093h2.862v6.866c0 4.522 2.139 6.205 7.962 5.545V19.66c-2.435.132-3.718.1-3.718-1.683v-6.866h3.718V7.02H33V1.45z"/>
    </g>
</svg>
