<svg xmlns="http://www.w3.org/2000/svg" width="35" height="36" viewBox="0 0 35 36">
    <path fill="#207BFF" fill-rule="evenodd" d="M11.113 4.395l-1.231 2.22 2.189-1.24a.463.463 0 0 1 .465 0l2.188 1.24-1.23-2.22a.478.478 0 0 1 0-.46l1.23-2.221-2.188 1.24a.469.469 0 0 1-.465 0l-2.19-1.24 1.232 2.221a.478.478 0 0 1 0 .46zM8.32 8.193a.476.476 0 0 1-.08-.566l1.918-3.462L8.24.703a.477.477 0 0 1 .08-.566.476.476 0 0 1 .567-.076l3.416 1.937L15.72.061a.477.477 0 0 1 .567.076c.15.15.182.38.08.566l-1.92 3.462 1.92 3.462a.476.476 0 0 1-.414.703c-.08 0-.16-.02-.233-.061L12.303 6.33 8.887 8.27a.47.47 0 0 1-.567-.076zm20.612-3.798l-1.23 2.22 2.187-1.24a.463.463 0 0 1 .466 0l2.188 1.242-1.23-2.222a.478.478 0 0 1 0-.46l1.23-2.221-2.188 1.24a.469.469 0 0 1-.466 0l-2.188-1.24 1.231 2.221a.478.478 0 0 1 0 .46zm-2.791 3.798a.473.473 0 0 1-.082-.566l1.918-3.462L26.059.703a.474.474 0 0 1 .646-.642l3.417 1.937L33.54.061a.475.475 0 0 1 .566.076c.15.15.183.38.08.566l-1.917 3.462 1.918 3.462a.474.474 0 0 1-.647.642L30.122 6.33 26.705 8.27a.468.468 0 0 1-.564-.076zm4.214 14.79l2.189 1.24-1.23-2.221a.478.478 0 0 1 0-.46l1.23-2.221-2.19 1.24a.474.474 0 0 1-.465 0l-2.188-1.24 1.231 2.221a.478.478 0 0 1 0 .46l-1.23 2.221 2.187-1.24a.471.471 0 0 1 .466 0zm3.83 2.251a.477.477 0 0 1-.08.567.477.477 0 0 1-.566.076l-3.417-1.938-3.416 1.938a.475.475 0 0 1-.647-.642l1.918-3.462-1.918-3.463a.473.473 0 1 1 .647-.642l3.416 1.938 3.417-1.938a.474.474 0 0 1 .647.642l-1.918 3.463 1.918 3.461zm-8.072-10.931a.975.975 0 0 0 .3-.688.972.972 0 0 0-.3-.686l-3.796-3.795a.983.983 0 0 0-.687-.297c-.243 0-.485.1-.688.298l-4.9 4.9 5.203 5.134 4.868-4.866zM6.796 33.614l13.512-13.508-5.205-5.133L1.619 28.45c-.394.4-.394.965.004 1.37l3.794 3.793c.402.398.98.398 1.379 0zm20.942-19.999c0 .605-.245 1.182-.69 1.627L7.73 34.553a2.288 2.288 0 0 1-1.623.694c-.58 0-1.162-.23-1.624-.694L.685 30.756c-.913-.927-.913-2.318-.004-3.24l19.33-19.323c.922-.91 2.312-.91 3.236-.003l.003.003 3.797 3.797c.446.445.691 1.022.691 1.625z"/>
</svg>
