<svg xmlns="http://www.w3.org/2000/svg" width="36" height="36" viewBox="0 0 36 36">
    <path fill="#B1C8EA" fill-rule="evenodd" d="M21.797 13.36a.703.703 0 1 1 0 1.406.703.703 0 0 1 0-1.407zm12.385 20.822a1.4 1.4 0 0 0 .412-.995 1.4 1.4 0 0 0-.412-.993l-6.244-6.244a18.228 18.228 0 0 1-1.988 1.988l6.243 6.244a1.403 1.403 0 0 0 1.99 0zM1.406 14.062c0 6.98 5.678 12.657 12.657 12.657 2.684 0 5.25-.834 7.42-2.41a12.726 12.726 0 0 0 2.826-2.825 12.55 12.55 0 0 0 2.41-7.421c0-6.98-5.678-12.657-12.656-12.657-6.98 0-12.657 5.678-12.657 12.657zm21.552 10.884l1.995 1.994a16.83 16.83 0 0 0 1.987-1.987l-1.994-1.995a13.99 13.99 0 0 1-1.988 1.988zM35.176 31.2c.531.53.824 1.236.824 1.987 0 .752-.293 1.458-.824 1.99a2.796 2.796 0 0 1-1.989.823 2.79 2.79 0 0 1-1.987-.824l-6.791-6.79-2.596-2.595a13.939 13.939 0 0 1-7.75 2.334C6.309 28.125 0 21.816 0 14.063 0 6.309 6.31 0 14.063 0c7.753 0 14.062 6.309 14.062 14.063 0 2.78-.806 5.448-2.334 7.75l9.385 9.387zm-21.114-7.294c5.428 0 9.845-4.415 9.845-9.844 0-5.427-4.417-9.843-9.845-9.843-5.427 0-9.844 4.416-9.844 9.843 0 5.429 4.417 9.844 9.844 9.844zm11.25-9.844c0 6.204-5.046 11.25-11.25 11.25-6.203 0-11.25-5.046-11.25-11.25 0-6.202 5.047-11.25 11.25-11.25 6.204 0 11.25 5.048 11.25 11.25zm-3.774-2.11a.703.703 0 0 1-.909-.404c-1.038-2.702-3.676-4.517-6.567-4.517a.703.703 0 1 1 0-1.406c1.739 0 3.409.526 4.832 1.523a8.44 8.44 0 0 1 3.048 3.896.704.704 0 0 1-.404.909z"/>
</svg>
