<svg xmlns="http://www.w3.org/2000/svg" xmlns:xlink="http://www.w3.org/1999/xlink" width="156" height="144" viewBox="0 0 156 144">
    <defs>
        <radialGradient id="b" cy="88.137%" r="8.285%" fx="50%" fy="88.137%" gradientTransform="matrix(0 -1 5.8695 0 -4.673 1.381)">
            <stop offset="0%" stop-color="#D2E4FC" stop-opacity=".4"/>
            <stop offset="43.294%" stop-color="#C6DFFE" stop-opacity=".1"/>
            <stop offset="100%" stop-color="#D6E8FF" stop-opacity="0"/>
        </radialGradient>
        <path id="a" d="M0 0h160v160H0z"/>
        <path id="c" d="M0 0h33.533v27.706H0z"/>
    </defs>
    <g fill="none" fill-rule="evenodd">
        <use fill="url(#b)" transform="translate(-2 -10)" xlink:href="#a"/>
        <path fill="#BED3F5" d="M102.603 15.354c-12.82 0-20.605-7.324-23.96-11.425a2.488 2.488 0 0 0-3.878 0c-3.354 4.101-11.14 11.425-23.96 11.425H36.497c-1.93 0-3.496 1.581-3.496 3.532v22.956c0 40.615 32.374 60.04 43.705 63.571 11.33-3.531 43.704-22.956 43.704-63.571V18.886c0-1.95-1.565-3.532-3.496-3.532h-14.31z"/>
        <path fill="#E6F1FF" d="M76.266 0c-.775 0-1.55.33-2.098.99-3.627 4.365-12.047 12.16-25.912 12.16H32.781c-2.088 0-3.781 1.684-3.781 3.76v24.438c0 43.235 35.012 63.914 47.266 67.673 12.254-3.76 47.265-24.438 47.265-67.673V16.91c0-2.076-1.693-3.76-3.781-3.76h-15.475C90.41 13.15 81.99 5.356 78.363.99A2.715 2.715 0 0 0 76.266 0m0 9.72c5.564 5.173 14.748 10.95 28.009 10.95h11.694v20.678c0 16.755-5.728 31.401-17.024 43.532-8.253 8.861-17.452 14.012-22.68 16.146-5.227-2.134-14.426-7.284-22.678-16.146C42.29 72.75 36.563 58.103 36.563 41.348V20.67h11.693c13.26 0 22.446-5.777 28.01-10.95"/>
        <path fill="#FFF" d="M38.781 22.71v18.798c0 16.267 5.56 30.483 16.521 42.254C63.96 93.06 73.08 97.62 76.594 99.145c3.513-1.525 12.634-6.085 21.291-15.383 10.962-11.771 16.521-25.987 16.521-42.254V22.71h-9.804c-13.009 0-22.25-5.357-28.008-10.302-5.76 4.945-15 10.302-28.009 10.302h-9.804zm37.813 80.356c-.244 0-.488-.048-.719-.141-2.985-1.22-13.489-6.02-23.346-16.608C40.897 73.828 35 58.75 35 41.507V20.83c0-1.04.846-1.88 1.89-1.88h11.695c12.797 0 21.592-5.68 26.718-10.443a1.896 1.896 0 0 1 2.581 0C83.01 13.27 91.806 18.95 104.602 18.95h11.695c1.045 0 1.89.84 1.89 1.88v20.678c0 17.243-5.897 32.32-17.528 44.809-9.858 10.588-20.362 15.388-23.347 16.608a1.914 1.914 0 0 1-.718.141z"/>
        <path fill="#FFF" d="M75.87 28.868c-6.36.007-11.513 5.014-11.52 11.192v6.887c0 .476.396.861.886.861h3.545c.49 0 .886-.385.886-.86V40.06c0-3.329 2.777-6.027 6.204-6.027 3.426 0 6.203 2.698 6.203 6.027v6.887c0 .476.397.861.886.861h3.545c.49 0 .886-.385.886-.86V40.06c-.007-6.178-5.16-11.185-11.52-11.192"/>
        <g transform="translate(59.35 45.59)">
            <mask id="d" fill="#fff">
                <use xlink:href="#c"/>
            </mask>
            <path fill="#1272FC" d="M4.952 0h23.772c2.735 0 4.953 2.224 4.953 4.968V22.85c0 2.744-2.218 4.968-4.953 4.968H4.952C2.217 27.819 0 25.595 0 22.85V4.968C0 2.224 2.217 0 4.952 0" mask="url(#d)"/>
        </g>
        <path fill="#A8CBF2" d="M80.94 56.866c.01-2.749-2.127-4.986-4.775-4.998-2.649-.012-4.804 2.207-4.815 4.956-.008 1.9 1.027 3.64 2.667 4.482l-.74 5.376c-.074.544.29 1.048.815 1.125a.92.92 0 0 0 .134.01h3.836c.53.005.964-.436.969-.986 0-.05-.003-.101-.01-.151l-.74-5.376c1.62-.842 2.648-2.557 2.658-4.438"/>
        <g transform="translate(93 76)">
            <circle cx="19" cy="19" r="17.5" fill="#FFE294" stroke="#FFBA00" stroke-width="3"/>
            <circle cx="19.469" cy="19.469" r="10.469" fill="#FFBA00"/>
            <path fill="#FFE294" d="M22.028 14.403a3.554 3.554 0 0 1-2.764-1.297.29.29 0 0 0-.447 0 3.554 3.554 0 0 1-2.763 1.297h-1.65a.402.402 0 0 0-.404.401v2.608c0 4.613 3.734 6.82 5.04 7.22 1.308-.4 5.042-2.607 5.042-7.22v-2.608a.402.402 0 0 0-.404-.4h-1.65z"/>
            <path fill="#FFBA00" fill-rule="nonzero" d="M19.255 33.653a.776.776 0 0 1 0-1.55c.245 0 .489-.008.731-.021a.776.776 0 1 1 .088 1.548c-.272.015-.545.023-.819.023zM29.6 29.247a.776.776 0 0 1-1.118-1.075c.169-.176.333-.356.491-.541a.776.776 0 1 1 1.178 1.01c-.178.207-.362.41-.551.606zm3.991-10.501a.776.776 0 0 1-1.55.06c-.009-.245-.025-.489-.048-.73a.776.776 0 0 1 1.544-.148c.025.271.044.544.054.818zM28.775 8.573a.776.776 0 0 1-1.03 1.16c-.182-.162-.369-.319-.56-.47a.776.776 0 1 1 .962-1.216c.214.169.424.344.628.526zm-10.64-3.57a.776.776 0 0 1 .12 1.546 12.84 12.84 0 0 0-.727.077.776.776 0 0 1-.207-1.537c.27-.037.542-.066.815-.087zm-9.986 5.22a.776.776 0 0 1 1.2.983c-.154.188-.303.381-.447.578a.776.776 0 0 1-1.254-.912c.161-.221.328-.438.501-.649zM5.005 20.984a.776.776 0 1 1 1.54-.18c.03.243.064.484.106.724a.776.776 0 0 1-1.528.267c-.047-.268-.086-.539-.118-.81zm5.581 9.755a.776.776 0 1 1 .938-1.235c.194.147.393.289.595.425a.776.776 0 0 1-.866 1.287 14.388 14.388 0 0 1-.667-.477z"/>
        </g>
    </g>
</svg>
