<svg xmlns="http://www.w3.org/2000/svg" width="36" height="34" viewBox="0 0 36 34">
    <path fill="#B1C8EA" fill-rule="evenodd" d="M25.028 17.627l1.888 8.338a1.27 1.27 0 0 1-.503 1.328 1.283 1.283 0 0 1-1.422.065l-7.383-4.364-7.383 4.364a1.303 1.303 0 0 1-.663.184c-.271 0-.533-.087-.76-.25a1.272 1.272 0 0 1-.502-1.327l1.014-4.478a.573.573 0 0 1 .257-.362.569.569 0 0 1 .439-.076.575.575 0 0 1 .365.256c.084.131.11.286.076.438l-1.014 4.478a.12.12 0 0 0 .05.132.118.118 0 0 0 .142.007l7.682-4.54a.588.588 0 0 1 .594 0l7.681 4.54c.046.028.095.026.142-.007a.12.12 0 0 0 .05-.133l-1.963-8.674a.578.578 0 0 1 .183-.564l6.71-5.868c.044-.038.056-.084.038-.137a.116.116 0 0 0-.11-.088l-8.895-.823a.582.582 0 0 1-.481-.348l-1.73-3.997a.58.58 0 0 1 .751-.768c.146.057.26.167.32.31l1.593 3.68 8.548.79c.525.048.951.388 1.114.885a1.27 1.27 0 0 1-.378 1.368l-6.45 5.641zm-14.84 0l-6.451-5.64a1.272 1.272 0 0 1-.377-1.368 1.276 1.276 0 0 1 1.113-.886l8.548-.79 3.396-7.85c.21-.481.666-.78 1.19-.78.526 0 .983.299 1.192.78l.959 2.218a.57.57 0 0 1 .006.443.582.582 0 0 1-1.077.016l-.96-2.218c-.044-.104-.195-.104-.238 0l-3.533 8.167a.58.58 0 0 1-.482.347l-8.894.823a.116.116 0 0 0-.11.087.118.118 0 0 0 .037.138l6.71 5.868c.16.14.231.357.184.564l-.488 2.157a.586.586 0 0 1-.698.439.576.576 0 0 1-.363-.256.573.573 0 0 1-.077-.438l.412-1.82zM7.303 1.261a.526.526 0 0 0-.12.734c.238.33 1.123 1.234 2.504 2.56-.84-1.75-1.406-2.845-1.645-3.175a.53.53 0 0 0-.739-.12zm3.81 6.241c-.703-.651-4.235-3.942-4.876-4.828A1.685 1.685 0 0 1 6.623.318a1.694 1.694 0 0 1 2.365.384c.662.915 2.81 5.604 3.054 6.135a.582.582 0 0 1-.928.665zm14.415-2.947c1.401-1.346 2.263-2.23 2.502-2.56a.525.525 0 0 0-.513-.827.527.527 0 0 0-.345.212c-.24.33-.806 1.426-1.644 3.175zm-2.166 2.993a.582.582 0 0 1-.19-.711c.398-.869 2.412-5.247 3.055-6.135a1.699 1.699 0 0 1 3.047.715c.073.445-.034.891-.298 1.257-.663.918-4.446 4.43-4.875 4.828a.583.583 0 0 1-.739.046zm10.66 13.093a.525.525 0 0 0-.339-.663c-.482-.157-2.116-.401-3.539-.595 1.69.905 2.823 1.47 3.21 1.595a.513.513 0 0 0 .404-.031.518.518 0 0 0 .263-.306zm1.007-.927c.206.402.242.859.1 1.288-.139.427-.438.775-.842.98a1.667 1.667 0 0 1-1.293.1c-1.036-.336-5.265-2.688-6.104-3.157a.582.582 0 0 1 .355-1.082c.232.026 5.681.669 6.8 1.03.43.14.78.44.984.84zm-33.805.526a.521.521 0 0 0 .232.708.524.524 0 0 0 .402.03c.388-.125 1.522-.69 3.212-1.596-1.423.194-3.058.44-3.539.596a.52.52 0 0 0-.307.262zm7.366-2a.579.579 0 0 1-.268.685c-.203.114-4.989 2.796-6.102 3.157a1.676 1.676 0 0 1-1.293-.1 1.67 1.67 0 0 1-.843-.98 1.658 1.658 0 0 1 .1-1.288c.205-.402.554-.7.985-.84 1.035-.336 5.845-.918 6.8-1.03a.58.58 0 0 1 .621.395zm9.58 13.677c0-.405-.187-1.654-.529-3.534-.256 1.408-.53 3.03-.53 3.534a.528.528 0 0 0 1.058 0zm-.529-7.22c.277 0 .516.195.572.465.187.937 1.123 5.663 1.123 6.755 0 .931-.76 1.687-1.695 1.687a1.693 1.693 0 0 1-1.695-1.687c0-1.09.936-5.817 1.124-6.755a.581.581 0 0 1 .571-.466z"/>
</svg>
