<svg xmlns="http://www.w3.org/2000/svg" width="36" height="36" viewBox="0 0 36 36">
    <path fill="#B1C8EA" fill-rule="evenodd" d="M20.517 24.968c5.497-3.053 7.48-9.986 4.427-15.486l-1.308 1.308c.22.365.338.784.34 1.21 0 1.327-1.074 2.401-2.4 2.401a2.364 2.364 0 0 1-1.21-.34l-3.928 3.929c.222.365.34.783.341 1.21a2.399 2.399 0 1 1-4.799 0c.003-.427.12-.845.341-1.21l-2.727-2.73c-.367.221-.785.339-1.212.34a2.397 2.397 0 0 1-2.314-1.8h-2.42c-.044.405-.065.81-.065 1.217.005 6.291 5.108 11.388 11.396 11.383a11.383 11.383 0 0 0 5.538-1.432zM9.58 13.201a1.2 1.2 0 1 0-2.4-.001 1.2 1.2 0 0 0 2.4 0zm5.998 6a1.199 1.199 0 1 0-2.398-.001 1.199 1.199 0 0 0 2.398 0zm7.198-7.2a1.2 1.2 0 1 0-2.4.002 1.2 1.2 0 0 0 2.4-.003zM14.98 3.6c-5.366.009-10 3.755-11.136 9h2.225a2.393 2.393 0 0 1 4.714.6c-.002.427-.12.846-.341 1.211l2.728 2.729a2.325 2.325 0 0 1 2.422 0l3.927-3.929a2.362 2.362 0 0 1-.34-1.212 2.4 2.4 0 0 1 2.399-2.4 2.37 2.37 0 0 1 1.21.344l1.5-1.5A11.387 11.387 0 0 0 14.978 3.6zm0-1.2c6.953.008 12.588 5.645 12.596 12.6 0 6.958-5.64 12.599-12.596 12.599S2.384 21.96 2.384 15c0-6.958 5.639-12.598 12.595-12.598zm18.398 32.36c1.551-.536 1.819-2.31.826-3.283l-4.829-4.828-2.75 2.75 4.828 4.83.03.032c.495.494 1.233.73 1.895.5zm-9.26-7.87l1.659 1.66 2.75-2.75-1.66-1.661c-.064.084-.136.164-.202.246a16.501 16.501 0 0 1-.558.657c-.06.067-.12.129-.18.193-.23.245-.467.484-.714.714l-.192.18c-.127.115-.257.227-.388.337-.09.075-.186.155-.27.222-.083.067-.163.138-.246.202zm-.355-1.256c.072-.06.142-.126.213-.186a12.243 12.243 0 0 0 .881-.828c.196-.2.386-.408.568-.621.063-.072.126-.142.187-.215l.1-.123c3.23-4.022 4.025-9.594 1.887-14.29-3.739-8.21-13.721-10.605-20.672-5.638C.444 8.366-.837 17.57 4.336 23.819c4.781 5.775 13.563 6.601 19.372 1.86l.054-.044zm6.212-23.233a1.199 1.199 0 1 0 0 2.397 1.199 1.199 0 0 0 0-2.397zm.249 23.399l4.828 4.83a3.149 3.149 0 0 1-.452 4.824c-1.268.88-3.014.606-4.104-.485l-4.72-4.721-.848-.848-1.81-1.81c-6.903 4.47-16.201 2.572-20.756-4.467C-1.703 16.841-.4 8.294 5.342 3.498c6.583-5.5 16.349-4.369 21.519 2.37l1.054-1.055a2.365 2.365 0 0 1-.34-1.212 2.4 2.4 0 0 1 2.399-2.4 2.399 2.399 0 0 1 2.308 1.784h3.064a.616.616 0 0 1 0 1.232h-3.064a2.399 2.399 0 0 1-2.308 1.785 2.37 2.37 0 0 1-1.21-.341l-1.2 1.2a14.952 14.952 0 0 1 0 16.28l1.81 1.812.849.848z"/>
</svg>
