<svg xmlns="http://www.w3.org/2000/svg" width="36" height="36" viewBox="0 0 36 36">
    <path fill="#B1C8EA" fill-rule="evenodd" d="M18.182 19.544c.413 0 .749.332.749.74v12.177c0 1.952-1.603 3.539-3.573 3.539s-3.572-1.587-3.572-3.54v-1.075c0-.41.335-.741.748-.741.412 0 .748.332.748.74v1.077c0 1.134.93 2.057 2.076 2.057a2.07 2.07 0 0 0 2.076-2.057V20.285c0-.41.336-.741.748-.741zm-9.613 3.864c-.298 0-.668.102-.734.587l-.067.462h.721c.166 0 .256.19.256.367 0 .217-.106.367-.256.367H7.66l-.222 1.54H8.92c.2 0 .302.23.302.454 0 .226-.103.455-.302.455H6.063c-.199 0-.303-.229-.303-.455 0-.225.104-.455.303-.455h.338l.215-1.539H6.3c-.15 0-.255-.15-.255-.367 0-.178.09-.367.255-.367h.424l.068-.46c.123-.852.902-1.493 1.812-1.493h.283c.22 0 .336.23.336.45 0 .223-.126.454-.336.454H8.57zm-.868 5.849c2.228 0 4.04-1.8 4.04-4.011 0-2.212-1.812-4.01-4.04-4.01-2.229 0-4.04 1.798-4.04 4.01 0 2.212 1.811 4.01 4.04 4.01zm0-9.12c2.837 0 5.146 2.292 5.146 5.109 0 2.818-2.309 5.11-5.146 5.11-2.838 0-5.146-2.292-5.146-5.11 0-2.817 2.308-5.108 5.146-5.108zm20.598 9.12c2.229 0 4.04-1.8 4.04-4.011 0-2.212-1.811-4.01-4.04-4.01-2.228 0-4.04 1.798-4.04 4.01 0 2.212 1.812 4.01 4.04 4.01zm0-9.12c2.838 0 5.146 2.292 5.146 5.109 0 2.818-2.308 5.11-5.146 5.11-2.837 0-5.146-2.292-5.146-5.11 0-2.817 2.309-5.108 5.146-5.108zm.34 6.478c.153-.036.41-.138.41-.42 0-.197-.126-.344-.41-.476v.896zm-.377-2.133v-.796c-.27.054-.431.195-.431.375 0 .172.124.293.43.421zm.445.163c.64.235 1.327.561 1.327 1.444 0 .79-.484 1.32-1.328 1.457l-.004.22c-.02.082-.135.153-.251.153-.141 0-.256-.08-.256-.18v-.167c-.783-.026-1.47-.433-1.47-.869 0-.248.217-.563.459-.563.13 0 .25.084.388.183.16.114.353.252.623.3l-.001-1.085c-.737-.277-1.347-.572-1.347-1.377 0-1.086 1.032-1.314 1.348-1.358v-.186c0-.098.117-.18.256-.18.113 0 .228.068.25.148l.005.032v.167c.284.01 1.206.08 1.206.583 0 .185-.126.548-.418.548a.583.583 0 0 1-.271-.09c-.126-.065-.27-.139-.517-.157v.977zm5.621-7.351l.295.134-.025-.33c-.128-1.617-.712-5.79-3.366-9.566-1.365-1.941-3.064-3.465-5.049-4.528A15.263 15.263 0 0 0 22 1.519l-.757-.153.6.497c.36.299.72.644 1.068 1.023 1.284 1.4 2.274 3.11 2.88 4.299 1.618 3.179 2.774 7.033 3.017 10.057l.025.286.252-.126a6.045 6.045 0 0 1 2.734-.651c.871 0 1.715.183 2.51.543zm-7.159-.118l.293.116-.034-.318c-.287-2.831-1.39-6.408-2.88-9.334-.785-1.542-2.414-4.313-4.487-5.554L19.6 1.81l.234.645c.406 1.143.804 2.815 1.15 4.834.532 3.105.915 6.883 1.002 9.86l.01.294.261-.122a6.18 6.18 0 0 1 4.913-.146zm-6.804.017l.271.11-.009-.298c-.093-2.89-.47-6.548-.983-9.551C19.022 3.82 18.406 2.36 18.17 1.9L18 1.57l-.169.33c-.237.46-.854 1.92-1.476 5.555-.512 2.998-.889 6.657-.983 9.549l-.009.299.271-.11a6.335 6.335 0 0 1 4.731 0zM15.017 7.29c.344-2.014.742-3.685 1.15-4.833l.23-.645-.459.274c-2.077 1.243-3.702 4.013-4.486 5.554-1.489 2.926-2.594 6.503-2.88 9.334l-.034.32.292-.117a6.157 6.157 0 0 1 2.288-.44c.912 0 1.794.198 2.626.586l.262.122.01-.295c.085-2.976.47-6.754 1.001-9.86zm-7.825 9.952c.243-3.023 1.4-6.876 3.018-10.057.604-1.188 1.595-2.9 2.88-4.3.35-.381.711-.726 1.068-1.022l.6-.498-.758.154a15.305 15.305 0 0 0-4.185 1.485C7.83 4.068 6.131 5.592 4.767 7.532c-2.653 3.775-3.237 7.948-3.365 9.567l-.025.329.295-.134a6.04 6.04 0 0 1 2.51-.543c.953 0 1.873.219 2.734.65l.252.127.024-.286zm25.201-10.3c2.652 3.775 3.602 8.346 3.607 11.365v.156a.54.54 0 0 1-.188.399.747.747 0 0 1-.488.178h-.208a.751.751 0 0 1-.444-.142l-.037-.028c-.844-.634-1.818-.97-2.817-.97-.998 0-1.97.336-2.815.97l-.216.16c-.276.208-.74.175-.973-.07a1.064 1.064 0 0 1-.073-.09l-.038-.04c-.85-.616-1.825-.941-2.82-.941-1.028 0-2.028.343-2.894.993l-.217.162a.774.774 0 0 1-.739.087.61.61 0 0 1-.36-.375l-.022-.07-.06-.04a4.807 4.807 0 0 0-5.18 0l-.062.04-.02.07a.62.62 0 0 1-.36.376.791.791 0 0 1-.743-.088l-.215-.161c-.868-.65-1.869-.994-2.893-.994-.996 0-1.972.325-2.83.95l-.04.045a.581.581 0 0 1-.063.077c-.232.242-.696.274-.972.07l-.216-.161c-.844-.634-1.817-.97-2.815-.97-1 0-1.973.336-2.816.97l-.035.026a.76.76 0 0 1-.447.144H.676a.745.745 0 0 1-.489-.18.531.531 0 0 1-.187-.397v-.156c.005-3.02.955-7.59 3.606-11.364C5.08 4.846 6.928 3.193 9.097 2.03 11.61.683 14.552 0 17.838 0c.045 0 .09.004.13.01L18 .018l.031-.006A.79.79 0 0 1 18.162 0c3.286 0 6.228.683 8.741 2.03 2.17 1.164 4.017 2.817 5.49 4.913z"/>
</svg>
